<svg width="180" height="180" viewBox="0 0 180 180" xmlns="http://www.w3.org/2000/svg">
  <defs>
    <linearGradient id="solanaGradient" x1="0%" y1="0%" x2="100%" y2="100%">
      <stop offset="0%" style="stop-color:#9945FF;stop-opacity:1" />
      <stop offset="50%" style="stop-color:#00D18C;stop-opacity:1" />
      <stop offset="100%" style="stop-color:#14F195;stop-opacity:1" />
    </linearGradient>
    <linearGradient id="glowGradient" x1="0%" y1="0%" x2="100%" y2="100%">
      <stop offset="0%" style="stop-color:#10b981;stop-opacity:0.8" />
      <stop offset="100%" style="stop-color:#14F195;stop-opacity:0.3" />
    </linearGradient>
  </defs>

  <rect width="180" height="180" fill="#111827" rx="36"/>
  
  <!-- Pixel grid background -->
  <pattern id="pixelGrid" patternUnits="userSpaceOnUse" width="10" height="10">
    <rect width="10" height="10" fill="none" stroke="#1f2937" stroke-width="0.3" opacity="0.3"/>
  </pattern>
  <rect width="180" height="180" fill="url(#pixelGrid)" rx="36"/>

  <!-- Solana icon inspired design -->
  <!-- Top curve -->
  <path d="M20 44 L134 44 L154 24 L166 24 L166 34 L146 54 L32 54 L12 34 L12 24 L20 24 Z" 
        fill="url(#solanaGradient)" 
        stroke="#000" 
        stroke-width="2"/>
  
  <!-- Middle straight line -->
  <rect x="20" y="78" width="140" height="24" 
        fill="url(#solanaGradient)" 
        stroke="#000" 
        stroke-width="2"/>
  
  <!-- Bottom curve (flipped) -->
  <path d="M20 122 L134 122 L154 156 L166 156 L166 146 L146 126 L32 126 L12 146 L12 156 L20 156 Z" 
        fill="url(#solanaGradient)" 
        stroke="#000" 
        stroke-width="2"/>

  <!-- Pixel art "S" overlay -->
  <g transform="translate(66,44)">
    <!-- "S" in pixel style -->
    <rect x="0" y="0" width="12" height="12" fill="#10b981"/>
    <rect x="12" y="0" width="12" height="12" fill="#10b981"/>
    <rect x="24" y="0" width="12" height="12" fill="#10b981"/>
    <rect x="36" y="0" width="12" height="12" fill="#10b981"/>
    
    <rect x="0" y="12" width="12" height="12" fill="#10b981"/>
    <rect x="0" y="24" width="12" height="12" fill="#10b981"/>
    <rect x="12" y="24" width="12" height="12" fill="#10b981"/>
    <rect x="24" y="24" width="12" height="12" fill="#10b981"/>
    
    <rect x="36" y="34" width="12" height="12" fill="#10b981"/>
    <rect x="36" y="46" width="12" height="12" fill="#10b981"/>
    <rect x="0" y="46" width="12" height="12" fill="#10b981"/>
    <rect x="12" y="46" width="12" height="12" fill="#10b981"/>
    <rect x="24" y="46" width="12" height="12" fill="#10b981"/>
    <rect x="36" y="46" width="12" height="12" fill="#10b981"/>
  </g>

  <!-- Glowing effect -->
  <circle cx="90" cy="90" r="70" fill="url(#glowGradient)" opacity="0.1"/>
  
  <!-- Corner decorations -->
  <rect x="12" y="12" width="10" height="10" fill="#10b981" opacity="0.8"/>
  <rect x="158" y="12" width="10" height="10" fill="#10b981" opacity="0.8"/>
  <rect x="12" y="158" width="10" height="10" fill="#10b981" opacity="0.8"/>
  <rect x="158" y="158" width="10" height="10" fill="#10b981" opacity="0.8"/>
</svg>