<svg width="32" height="32" viewBox="0 0 32 32" xmlns="http://www.w3.org/2000/svg">
  <defs>
    <linearGradient id="solanaGradient" x1="0%" y1="0%" x2="100%" y2="100%">
      <stop offset="0%" style="stop-color:#9945FF;stop-opacity:1" />
      <stop offset="50%" style="stop-color:#00D18C;stop-opacity:1" />
      <stop offset="100%" style="stop-color:#14F195;stop-opacity:1" />
    </linearGradient>
  </defs>

  <rect width="32" height="32" fill="#111827" rx="4"/>
  
  <!-- Simplified Solana curves for favicon -->
  <path d="M4 8 L24 8 L28 4 L30 6 L26 10 L6 10 L2 6 Z" fill="url(#solanaGradient)"/>
  <rect x="4" y="14" width="24" height="4" fill="url(#solanaGradient)"/>
  <path d="M4 24 L24 24 L28 28 L30 26 L26 22 L6 22 L2 26 Z" fill="url(#solanaGradient)"/>
  
  <!-- Pixel "S" -->
  <rect x="12" y="8" width="2" height="2" fill="#10b981"/>
  <rect x="14" y="8" width="2" height="2" fill="#10b981"/>
  <rect x="16" y="8" width="2" height="2" fill="#10b981"/>
  <rect x="18" y="8" width="2" height="2" fill="#10b981"/>
  
  <rect x="12" y="10" width="2" height="2" fill="#10b981"/>
  <rect x="12" y="12" width="2" height="2" fill="#10b981"/>
  <rect x="14" y="12" width="2" height="2" fill="#10b981"/>
  <rect x="16" y="12" width="2" height="2" fill="#10b981"/>
  
  <rect x="18" y="14" width="2" height="2" fill="#10b981"/>
  <rect x="18" y="16" width="2" height="2" fill="#10b981"/>
  <rect x="12" y="16" width="2" height="2" fill="#10b981"/>
  <rect x="14" y="16" width="2" height="2" fill="#10b981"/>
  <rect x="16" y="16" width="2" height="2" fill="#10b981"/>
  <rect x="18" y="16" width="2" height="2" fill="#10b981"/>
</svg>
