<svg width="192" height="192" viewBox="0 0 192 192" xmlns="http://www.w3.org/2000/svg">
  <defs>
    <linearGradient id="solanaGradient" x1="0%" y1="0%" x2="100%" y2="100%">
      <stop offset="0%" style="stop-color:#9945FF;stop-opacity:1" />
      <stop offset="50%" style="stop-color:#00D18C;stop-opacity:1" />
      <stop offset="100%" style="stop-color:#14F195;stop-opacity:1" />
    </linearGradient>
    <linearGradient id="glowGradient" x1="0%" y1="0%" x2="100%" y2="100%">
      <stop offset="0%" style="stop-color:#10b981;stop-opacity:0.8" />
      <stop offset="100%" style="stop-color:#14F195;stop-opacity:0.3" />
    </linearGradient>
  </defs>

  <rect width="192" height="192" fill="#111827" rx="24"/>
  
  <!-- Pixel grid background -->
  <pattern id="pixelGrid" patternUnits="userSpaceOnUse" width="12" height="12">
    <rect width="12" height="12" fill="none" stroke="#1f2937" stroke-width="0.3" opacity="0.3"/>
  </pattern>
  <rect width="192" height="192" fill="url(#pixelGrid)" rx="24"/>

  <!-- Solana icon inspired design -->
  <!-- Top curve -->
  <path d="M24 48 L144 48 L168 24 L180 24 L180 36 L156 60 L36 60 L12 36 L12 24 L24 24 Z" 
        fill="url(#solanaGradient)" 
        stroke="#000" 
        stroke-width="2"/>
  
  <!-- Middle straight line -->
  <rect x="24" y="84" width="144" height="24" 
        fill="url(#solanaGradient)" 
        stroke="#000" 
        stroke-width="2"/>
  
  <!-- Bottom curve (flipped) -->
  <path d="M24 132 L144 132 L168 168 L180 168 L180 156 L156 132 L36 132 L12 156 L12 168 L24 168 Z" 
        fill="url(#solanaGradient)" 
        stroke="#000" 
        stroke-width="2"/>

  <!-- Pixel art "S" overlay -->
  <g transform="translate(72,48)">
    <!-- "S" in pixel style -->
    <rect x="0" y="0" width="12" height="12" fill="#10b981"/>
    <rect x="12" y="0" width="12" height="12" fill="#10b981"/>
    <rect x="24" y="0" width="12" height="12" fill="#10b981"/>
    <rect x="36" y="0" width="12" height="12" fill="#10b981"/>
    
    <rect x="0" y="12" width="12" height="12" fill="#10b981"/>
    <rect x="0" y="24" width="12" height="12" fill="#10b981"/>
    <rect x="12" y="24" width="12" height="12" fill="#10b981"/>
    <rect x="24" y="24" width="12" height="12" fill="#10b981"/>
    
    <rect x="36" y="36" width="12" height="12" fill="#10b981"/>
    <rect x="36" y="48" width="12" height="12" fill="#10b981"/>
    <rect x="0" y="48" width="12" height="12" fill="#10b981"/>
    <rect x="12" y="48" width="12" height="12" fill="#10b981"/>
    <rect x="24" y="48" width="12" height="12" fill="#10b981"/>
    <rect x="36" y="48" width="12" height="12" fill="#10b981"/>
  </g>

  <!-- Glowing effect -->
  <circle cx="96" cy="96" r="80" fill="url(#glowGradient)" opacity="0.1"/>
  
  <!-- Corner decorations -->
  <rect x="12" y="12" width="12" height="12" fill="#10b981" opacity="0.8"/>
  <rect x="168" y="12" width="12" height="12" fill="#10b981" opacity="0.8"/>
  <rect x="12" y="168" width="12" height="12" fill="#10b981" opacity="0.8"/>
  <rect x="168" y="168" width="12" height="12" fill="#10b981" opacity="0.8"/>
</svg>