<svg width="400" height="400" viewBox="0 0 400 400" xmlns="http://www.w3.org/2000/svg">
  <defs>
    <linearGradient id="solanaGradient" x1="0%" y1="0%" x2="100%" y2="100%">
      <stop offset="0%" style="stop-color:#9945FF;stop-opacity:1" />
      <stop offset="50%" style="stop-color:#00D18C;stop-opacity:1" />
      <stop offset="100%" style="stop-color:#14F195;stop-opacity:1" />
    </linearGradient>
    <linearGradient id="glowGradient" x1="0%" y1="0%" x2="100%" y2="100%">
      <stop offset="0%" style="stop-color:#10b981;stop-opacity:0.8" />
      <stop offset="100%" style="stop-color:#14F195;stop-opacity:0.3" />
    </linearGradient>
  </defs>

  <!-- Background with subtle glow -->
  <rect width="400" height="400" fill="#111827" rx="20"/>
  
  <!-- Pixel grid background -->
  <pattern id="pixelGrid" patternUnits="userSpaceOnUse" width="20" height="20">
    <rect width="20" height="20" fill="none" stroke="#1f2937" stroke-width="0.5" opacity="0.3"/>
  </pattern>
  <rect width="400" height="400" fill="url(#pixelGrid)" rx="20"/>

  <!-- Solana icon inspired design -->
  <!-- Top curve -->
  <path d="M80 120 L280 120 L320 80 L340 80 L340 100 L300 140 L100 140 L60 100 L60 80 L80 80 Z" 
        fill="url(#solanaGradient)" 
        stroke="#000" 
        stroke-width="4"/>
  
  <!-- Middle straight line -->
  <rect x="80" y="180" width="240" height="40" 
        fill="url(#solanaGradient)" 
        stroke="#000" 
        stroke-width="4"/>
  
  <!-- Bottom curve (flipped) -->
  <path d="M80 280 L280 280 L320 320 L340 320 L340 300 L300 260 L100 260 L60 300 L60 320 L80 320 Z" 
        fill="url(#solanaGradient)" 
        stroke="#000" 
        stroke-width="4"/>

  <!-- Pixel art "S" overlay -->
  <g transform="translate(160,120)">
    <!-- "S" in pixel style -->
    <rect x="0" y="0" width="20" height="20" fill="#10b981"/>
    <rect x="20" y="0" width="20" height="20" fill="#10b981"/>
    <rect x="40" y="0" width="20" height="20" fill="#10b981"/>
    <rect x="60" y="0" width="20" height="20" fill="#10b981"/>
    
    <rect x="0" y="20" width="20" height="20" fill="#10b981"/>
    <rect x="0" y="40" width="20" height="20" fill="#10b981"/>
    <rect x="20" y="40" width="20" height="20" fill="#10b981"/>
    <rect x="40" y="40" width="20" height="20" fill="#10b981"/>
    
    <rect x="60" y="60" width="20" height="20" fill="#10b981"/>
    <rect x="60" y="80" width="20" height="20" fill="#10b981"/>
    <rect x="0" y="80" width="20" height="20" fill="#10b981"/>
    <rect x="20" y="80" width="20" height="20" fill="#10b981"/>
    <rect x="40" y="80" width="20" height="20" fill="#10b981"/>
    <rect x="60" y="80" width="20" height="20" fill="#10b981"/>
  </g>

  <!-- Glowing effect -->
  <circle cx="200" cy="200" r="150" fill="url(#glowGradient)" opacity="0.1"/>
  
  <!-- Corner decorations -->
  <rect x="20" y="20" width="20" height="20" fill="#10b981" opacity="0.8"/>
  <rect x="360" y="20" width="20" height="20" fill="#10b981" opacity="0.8"/>
  <rect x="20" y="360" width="20" height="20" fill="#10b981" opacity="0.8"/>
  <rect x="360" y="360" width="20" height="20" fill="#10b981" opacity="0.8"/>
</svg>